<svg width="128" height="18" viewBox="0 0 128 18" fill="none" xmlns="http://www.w3.org/2000/svg">
<g clip-path="url(#clip0_16_15)">
<mask id="mask0_16_15" style="mask-type:luminance" maskUnits="userSpaceOnUse" x="0" y="0" width="128" height="18">
<path d="M127.874 0H0V18H127.874V0Z" fill="white"/>
</mask>
<g mask="url(#mask0_16_15)">
<path d="M120.241 6.75202V2.48902H121.682C122.029 2.46914 122.377 2.52404 122.701 2.65002C122.936 2.76862 123.131 2.95235 123.264 3.1792C123.397 3.40604 123.461 3.66638 123.45 3.92902C123.45 4.71802 123.012 5.41502 121.791 5.41502H121.284V6.75202H120.241ZM121.75 4.46202C122.188 4.46202 122.407 4.31202 122.407 3.95002C122.407 3.60402 122.194 3.45002 121.707 3.45002H121.281V4.46202H121.75Z" fill="#1A1818"/>
<path d="M123.937 6.75201V2.48901H125.026V5.79601H126.287V6.75201H123.937Z" fill="#1A1818"/>
<path d="M123.129 9.48903C122.191 9.48903 121.273 9.21071 120.493 8.68928C119.712 8.16785 119.104 7.42672 118.745 6.55963C118.386 5.69253 118.292 4.73842 118.475 3.81795C118.658 2.89749 119.11 2.05201 119.774 1.38845C120.438 0.72489 121.283 0.273051 122.204 0.0900775C123.124 -0.0928964 124.079 0.0012131 124.946 0.360504C125.813 0.719795 126.554 1.32813 127.075 2.10857C127.596 2.88902 127.874 3.80651 127.874 4.74503C127.872 6.0029 127.372 7.20878 126.482 8.09814C125.593 8.9875 124.387 9.4877 123.129 9.48903ZM123.129 0.953026C122.379 0.953026 121.646 1.17542 121.022 1.59209C120.399 2.00876 119.913 2.60099 119.626 3.29389C119.339 3.98679 119.264 4.74923 119.41 5.48481C119.556 6.22038 119.917 6.89605 120.448 7.42637C120.978 7.9567 121.654 8.31785 122.389 8.46416C123.125 8.61048 123.887 8.53538 124.58 8.24838C125.273 7.96137 125.865 7.47534 126.282 6.85175C126.699 6.22816 126.921 5.49501 126.921 4.74503C126.919 3.73997 126.519 2.77669 125.808 2.06601C125.097 1.35533 124.134 0.955139 123.129 0.953026Z" fill="#1A1818"/>
<path d="M3.215 17.689V5.05303H0V1.39703H10.569V5.05203H7.377V17.689H3.215Z" fill="#1A1818"/>
<path d="M24.865 17.689L22.421 7.14202H22.377L19.933 17.689H16.168L11.963 1.39502H16.191L18.371 11.986H18.415L20.815 1.39502H24.008L26.364 12.03H26.408L28.632 1.39502H32.838L28.52 17.689H24.865Z" fill="#1A1818"/>
<path d="M33.753 9.91902C33.6487 8.20611 34.0589 6.50114 34.931 5.02312C35.803 3.54511 37.097 2.36155 38.6467 1.62447C40.1965 0.8874 41.9311 0.630471 43.628 0.886692C45.3248 1.14291 46.9064 1.90058 48.1694 3.06238C49.4324 4.22417 50.3192 5.73703 50.7159 7.40662C51.1127 9.07622 51.0012 10.8263 50.3958 12.4321C49.7905 14.0378 48.7189 15.4259 47.3187 16.4181C45.9185 17.4103 44.2536 17.9612 42.538 18C38.002 18 33.753 14.741 33.753 9.91902ZM46.788 9.56702C46.8168 8.95734 46.7242 8.348 46.5155 7.77442C46.3068 7.20083 45.9863 6.67442 45.5724 6.22578C45.1586 5.77714 44.6597 5.41521 44.1048 5.16101C43.5499 4.90681 42.95 4.76541 42.34 4.74502C41.7345 4.75844 41.1378 4.89309 40.5852 5.14101C40.0326 5.38893 39.5353 5.7451 39.1227 6.18847C38.7101 6.63183 38.3906 7.15341 38.183 7.72236C37.9754 8.29132 37.8839 8.89612 37.914 9.50102C37.861 10.1128 37.9351 10.729 38.1318 11.3108C38.3285 11.8925 38.6435 12.4273 39.0569 12.8814C39.4702 13.3356 39.9731 13.6992 40.5339 13.9496C41.0947 14.1999 41.7012 14.3315 42.3152 14.3361C42.9293 14.3407 43.5377 14.2181 44.1022 13.9761C44.6666 13.7341 45.1748 13.378 45.5949 12.9301C46.015 12.4821 46.3379 11.9521 46.5432 11.3733C46.7486 10.7946 46.8319 10.1796 46.788 9.56702Z" fill="#1A1818"/>
<path d="M60.039 6.15401C59.863 4.98701 59.379 4.56901 58.564 4.56901C58.2051 4.54934 57.853 4.67267 57.5848 4.912C57.3166 5.15134 57.1541 5.48717 57.133 5.84601C57.133 6.81501 58.014 7.25501 59.798 8.02601C63.387 9.56701 64.289 10.866 64.289 13.002C64.289 16.151 62.132 18.002 58.609 18.002C55.064 18.002 52.73 16.153 52.73 12.651V12.299H56.87C56.892 13.642 57.552 14.523 58.587 14.523C58.7925 14.5241 58.9963 14.4844 59.1864 14.4062C59.3765 14.328 59.5492 14.2129 59.6945 14.0676C59.8399 13.9222 59.955 13.7495 60.0332 13.5594C60.1113 13.3693 60.1511 13.1656 60.15 12.96C60.15 11.66 58.345 11.088 56.869 10.494C54.204 9.41501 52.994 8.00601 52.994 5.89401C52.994 3.12001 55.68 1.09401 58.675 1.09401C59.6773 1.08487 60.6669 1.31888 61.559 1.77601C62.3881 2.15338 63.0817 2.77564 63.5465 3.55906C64.0114 4.34248 64.2251 5.24947 64.159 6.15801L60.039 6.15401Z" fill="#1A1818"/>
<path d="M66.0921 9.91902C65.9878 8.20611 66.3981 6.50114 67.2701 5.02312C68.1421 3.54511 69.4361 2.36155 70.9858 1.62447C72.5355 0.8874 74.2703 0.630471 75.9671 0.886692C77.664 1.14291 79.2454 1.90058 80.5085 3.06238C81.7715 4.22417 82.6583 5.73703 83.055 7.40662C83.4518 9.07622 83.3403 10.8263 82.735 12.4321C82.1296 14.0378 81.058 15.4259 79.6578 16.4181C78.2576 17.4103 76.5927 17.9612 74.8771 18C70.3411 18 66.0921 14.741 66.0921 9.91902ZM79.1271 9.56702C79.1559 8.95734 79.0633 8.348 78.8546 7.77442C78.646 7.20083 78.3254 6.67442 77.9115 6.22578C77.4977 5.77714 76.9988 5.41521 76.4439 5.16101C75.889 4.90681 75.2891 4.76541 74.6791 4.74502C74.0736 4.75844 73.4769 4.89309 72.9243 5.14101C72.3718 5.38893 71.8744 5.7451 71.4618 6.18847C71.0492 6.63183 70.7297 7.15341 70.5221 7.72236C70.3144 8.29132 70.223 8.89612 70.2531 9.50102C70.2001 10.1128 70.2742 10.729 70.4709 11.3108C70.6676 11.8925 70.9826 12.4273 71.396 12.8814C71.8094 13.3356 72.3122 13.6992 72.873 13.9496C73.4338 14.1999 74.0403 14.3315 74.6544 14.3361C75.2685 14.3407 75.8769 14.2181 76.4413 13.9761C77.0057 13.7341 77.5139 13.378 77.934 12.9301C78.3541 12.4821 78.677 11.9521 78.8824 11.3733C79.0877 10.7946 79.171 10.1796 79.1271 9.56702Z" fill="#1A1818"/>
<path d="M99.3859 17.689L99.5179 5.48903L99.4739 5.44503L95.9929 17.689H93.2399L89.718 5.33903L89.85 17.692H86.0189V1.39703H91.3699L94.6069 12.12H94.6509L97.8439 1.39703H103.217V17.689H99.3859Z" fill="#1A1818"/>
<path d="M106.755 17.689V1.39703H115.805V5.05203H110.741V7.58903H115.651V11.244H110.741V14.044H115.805V17.689H106.755Z" fill="#1A1818"/>
</g>
</g>
<defs>
<clipPath id="clip0_16_15">
<rect width="127.874" height="18" fill="white"/>
</clipPath>
</defs>
</svg>
