<svg width="171" height="40" viewBox="0 0 171 40" fill="none" xmlns="http://www.w3.org/2000/svg">
<g clip-path="url(#clip0_5_50)">
<path d="M0.503906 24V4.20312H7.75C9.75521 4.20312 11.4915 4.59961 12.959 5.39258C14.4264 6.18555 15.5521 7.32487 16.3359 8.81055C17.1198 10.2962 17.5117 12.0599 17.5117 14.1016C17.5117 16.1432 17.1198 17.9069 16.3359 19.3926C15.5521 20.8783 14.4264 22.0176 12.959 22.8105C11.4915 23.6035 9.75521 24 7.75 24H0.503906ZM7.58594 20.0078C9.33594 20.0078 10.6484 19.5475 11.5234 18.627C12.3984 17.6973 12.8359 16.1888 12.8359 14.1016C12.8359 12.0052 12.3939 10.4922 11.5098 9.5625C10.6348 8.63281 9.30859 8.16797 7.53125 8.16797H5.15234V20.0078H7.58594ZM16.768 24L23.4945 4.20312H29.6742L36.3734 24H31.3695L30.0297 19.7617H23.1391L21.7992 24H16.768ZM28.9086 16.207L26.6664 9.09766H26.5023L24.2602 16.207H28.9086ZM37.0789 4.20312H45.1727C46.6492 4.20312 47.9253 4.46745 49.0008 4.99609C50.0854 5.52474 50.9148 6.28581 51.4891 7.2793C52.0724 8.26367 52.3641 9.42578 52.3641 10.7656C52.3641 12.1146 52.0678 13.2721 51.4754 14.2383C50.8921 15.2044 50.049 15.9382 48.9461 16.4395L53.075 24H47.9617L44.325 17.1914H41.7273V24H37.0789V4.20312ZM44.1883 13.4727C46.4305 13.4727 47.5516 12.5703 47.5516 10.7656C47.5516 9.84505 47.2645 9.15234 46.6902 8.6875C46.1251 8.21354 45.2911 7.97656 44.1883 7.97656H41.7273V13.4727H44.1883ZM59.3586 4.20312L64.4719 16.6719H64.6906L69.8039 4.20312H75.5734V24H71.0344V11.6953H70.8703L66.0578 23.8906H63.1047L58.2922 11.6406H58.1281V24H53.5891V4.20312H59.3586ZM83.4375 24V4.20312H89.4531C91.3034 4.20312 92.8939 4.59505 94.2246 5.37891C95.5645 6.16276 96.5898 7.29297 97.3008 8.76953C98.0117 10.2461 98.3672 12.0052 98.3672 14.0469C98.3581 16.125 97.9844 17.9115 97.2461 19.4062C96.5169 20.8919 95.4551 22.0312 94.0605 22.8242C92.666 23.6081 90.9935 24 89.043 24H83.4375ZM88.9883 22.6875C90.7018 22.6875 92.1556 22.3457 93.3496 21.6621C94.5436 20.9785 95.446 19.9896 96.0566 18.6953C96.6673 17.401 96.9727 15.8516 96.9727 14.0469C96.9635 12.2695 96.6628 10.7428 96.0703 9.4668C95.487 8.18164 94.6257 7.19727 93.4863 6.51367C92.3561 5.83008 90.9844 5.48828 89.3711 5.48828H84.8594V22.6875H88.9883ZM101.014 4.20312H112.225V5.48828H102.436V13.4453H111.596V14.7305H102.436V22.6875H112.416V24H101.014V4.20312ZM125.864 9.17969C125.8 8.39583 125.554 7.70312 125.126 7.10156C124.707 6.5 124.141 6.03516 123.43 5.70703C122.72 5.37891 121.908 5.21484 120.997 5.21484C120.067 5.21484 119.229 5.38802 118.481 5.73438C117.743 6.07161 117.164 6.54102 116.745 7.14258C116.335 7.73503 116.13 8.40495 116.13 9.15234C116.13 10.9206 117.47 12.1966 120.149 12.9805L122.282 13.6094C123.904 14.0742 125.185 14.7122 126.124 15.5234C127.063 16.3346 127.532 17.4284 127.532 18.8047C127.532 19.862 127.259 20.8099 126.712 21.6484C126.165 22.487 125.386 23.1432 124.374 23.6172C123.371 24.0911 122.2 24.3281 120.86 24.3281C119.575 24.3281 118.445 24.1139 117.47 23.6855C116.503 23.248 115.742 22.6374 115.186 21.8535C114.63 21.0697 114.316 20.1628 114.243 19.1328H115.692C115.756 19.9258 116.016 20.6185 116.471 21.2109C116.927 21.7943 117.533 22.2409 118.29 22.5508C119.046 22.8607 119.903 23.0156 120.86 23.0156C121.881 23.0156 122.792 22.8424 123.595 22.4961C124.397 22.1406 125.021 21.6439 125.468 21.0059C125.914 20.3678 126.137 19.6341 126.137 18.8047C126.137 17.8294 125.787 17.0456 125.085 16.4531C124.383 15.8516 123.312 15.332 121.872 14.8945L119.548 14.2109C117.971 13.7188 116.772 13.0625 115.952 12.2422C115.141 11.4219 114.735 10.4102 114.735 9.20703C114.735 8.1862 115.009 7.27474 115.555 6.47266C116.102 5.66146 116.854 5.03255 117.811 4.58594C118.768 4.13021 119.839 3.90234 121.024 3.90234C122.2 3.90234 123.253 4.13021 124.182 4.58594C125.112 5.03255 125.846 5.6569 126.384 6.45898C126.921 7.26107 127.213 8.16797 127.259 9.17969H125.864ZM131.655 24H130.234V4.20312H131.655V24ZM149.095 10.3828C148.877 9.47135 148.485 8.62826 147.92 7.85352C147.354 7.07878 146.625 6.45443 145.732 5.98047C144.848 5.50651 143.845 5.26953 142.724 5.26953C141.366 5.26953 140.158 5.62956 139.101 6.34961C138.044 7.06055 137.214 8.08594 136.613 9.42578C136.02 10.7565 135.724 12.3151 135.724 14.1016C135.724 15.8789 136.02 17.4329 136.613 18.7637C137.214 20.0944 138.053 21.1198 139.129 21.8398C140.204 22.5508 141.439 22.9062 142.834 22.9062C144.091 22.9062 145.203 22.6283 146.17 22.0723C147.145 21.5072 147.906 20.696 148.453 19.6387C149.009 18.5814 149.296 17.3372 149.314 15.9062H143.189V14.6211H150.709V15.8789C150.709 17.5742 150.371 19.0599 149.697 20.3359C149.032 21.6029 148.102 22.5781 146.908 23.2617C145.714 23.9362 144.356 24.2734 142.834 24.2734C141.147 24.2734 139.662 23.8542 138.377 23.0156C137.091 22.1771 136.093 20.9922 135.382 19.4609C134.681 17.9206 134.33 16.1341 134.33 14.1016C134.33 12.069 134.681 10.2871 135.382 8.75586C136.093 7.21549 137.082 6.02604 138.349 5.1875C139.616 4.34896 141.074 3.92969 142.724 3.92969C144.137 3.92969 145.399 4.23503 146.511 4.8457C147.632 5.44727 148.535 6.24023 149.218 7.22461C149.911 8.20898 150.362 9.26172 150.572 10.3828H149.095ZM168.75 24H167.383L155.078 6.77344H154.941V24H153.52V4.20312H154.914L167.219 21.457H167.355V4.20312H168.75V24Z" fill="white"/>
<path d="M21.1328 30.6318C21.0742 30.3447 20.9556 30.0884 20.7769 29.8628C20.6011 29.6343 20.3784 29.457 20.1089 29.3311C19.8423 29.2021 19.5508 29.1377 19.2344 29.1377C18.8301 29.1377 18.4639 29.2417 18.1357 29.4497C17.8105 29.6577 17.5527 29.9639 17.3623 30.3682C17.1748 30.7725 17.0811 31.2559 17.0811 31.8184C17.0811 32.3809 17.1748 32.8643 17.3623 33.2686C17.5527 33.6729 17.8105 33.979 18.1357 34.187C18.4639 34.395 18.8301 34.499 19.2344 34.499C19.5508 34.499 19.8423 34.436 20.1089 34.3101C20.3784 34.1812 20.6011 34.0039 20.7769 33.7783C20.9556 33.5498 21.0742 33.292 21.1328 33.0049H21.7656C21.6953 33.4004 21.5444 33.7563 21.313 34.0728C21.0815 34.3892 20.7871 34.6382 20.4297 34.8198C20.0723 34.9985 19.6738 35.0879 19.2344 35.0879C18.6982 35.0879 18.2207 34.9546 17.8018 34.688C17.3828 34.4185 17.0547 34.0361 16.8174 33.541C16.583 33.0459 16.4658 32.4717 16.4658 31.8184C16.4658 31.165 16.583 30.5908 16.8174 30.0957C17.0547 29.6006 17.3828 29.2197 17.8018 28.9531C18.2207 28.6836 18.6982 28.5488 19.2344 28.5488C19.6738 28.5488 20.0723 28.6382 20.4297 28.8169C20.7871 28.9956 21.0801 29.2432 21.3086 29.5596C21.54 29.873 21.6924 30.2305 21.7656 30.6318H21.1328ZM22.9521 28.6367H25.0352C25.4805 28.6367 25.8584 28.7173 26.1689 28.8784C26.4795 29.0396 26.7124 29.2651 26.8677 29.5552C27.0229 29.8423 27.1006 30.1748 27.1006 30.5527C27.1006 30.9863 26.998 31.3584 26.793 31.6689C26.5908 31.9766 26.2949 32.1948 25.9053 32.3237L27.3643 35H26.6436L25.2637 32.4424C25.1699 32.4482 25.0967 32.4512 25.0439 32.4512H23.5762V35H22.9521V28.6367ZM25.0176 31.8799C25.5039 31.8799 25.8701 31.7642 26.1162 31.5327C26.3623 31.2983 26.4854 30.9717 26.4854 30.5527C26.4854 30.1309 26.3608 29.7998 26.1118 29.5596C25.8657 29.3193 25.498 29.1992 25.0088 29.1992H23.5762V31.8799H25.0176ZM28.3486 28.6367H32.0752V29.1992H28.9727V31.5371H31.8818V32.0908H28.9727V34.4375H32.1367V35H28.3486V28.6367ZM32.8135 35L35.125 28.6367H35.8018L38.1133 35H37.4541L36.7861 33.1104H34.1406L33.4727 35H32.8135ZM36.5884 32.5566L35.4854 29.4453H35.4414L34.3384 32.5566H36.5884ZM37.9111 28.6367H42.5605V29.1992H40.5566V35H39.9238V29.1992H37.9111V28.6367ZM44.3184 35H43.6943V28.6367H44.3184V35ZM47.8604 34.1914H47.9219L49.8818 28.6367H50.541L48.2295 35H47.5527L45.2412 28.6367H45.9004L47.8604 34.1914ZM51.4639 28.6367H55.1904V29.1992H52.0879V31.5371H54.9971V32.0908H52.0879V34.4375H55.252V35H51.4639V28.6367ZM58.0732 28.6367H58.7148L60.1299 34.042H60.1826L61.6064 28.6367H62.3184L63.7422 34.042H63.7949L65.21 28.6367H65.8516L64.1113 35H63.4434L61.9844 29.6826H61.9404L60.4814 35H59.8135L58.0732 28.6367ZM66.748 28.6367H70.4746V29.1992H67.3721V31.5371H70.2812V32.0908H67.3721V34.4375H70.5361V35H66.748V28.6367ZM71.8018 28.6367H73.9727C74.3799 28.6367 74.7241 28.7085 75.0054 28.8521C75.2896 28.9927 75.502 29.189 75.6426 29.4409C75.7832 29.6929 75.8535 29.9814 75.8535 30.3066C75.8535 30.6816 75.7598 30.9863 75.5723 31.2207C75.3848 31.4521 75.1387 31.6074 74.834 31.6865V31.7393C75.0479 31.7539 75.2529 31.8271 75.4492 31.959C75.6455 32.0908 75.8037 32.2754 75.9238 32.5127C76.0469 32.7471 76.1084 33.0195 76.1084 33.3301C76.1084 33.6582 76.0352 33.9482 75.8887 34.2002C75.7422 34.4492 75.5166 34.6455 75.2119 34.7891C74.9102 34.9297 74.5352 35 74.0869 35H71.8018V28.6367ZM74.0781 34.4375C74.5469 34.4375 74.9014 34.3364 75.1416 34.1343C75.3818 33.9292 75.502 33.6582 75.502 33.3213C75.502 33.084 75.4434 32.8687 75.3262 32.6753C75.209 32.479 75.0449 32.3237 74.834 32.2095C74.623 32.0952 74.3799 32.0381 74.1045 32.0381H72.4258V34.4375H74.0781ZM74.0078 31.4932C74.251 31.4932 74.4663 31.4434 74.6538 31.3438C74.8442 31.2412 74.9922 31.1006 75.0977 30.9219C75.2031 30.7402 75.2559 30.5352 75.2559 30.3066C75.2559 29.9697 75.1445 29.7017 74.9219 29.5024C74.7021 29.3003 74.3828 29.1992 73.9639 29.1992H72.4258V31.4932H74.0078ZM79.501 35V28.6367H81.4961C82.1025 28.6367 82.6226 28.7627 83.0562 29.0146C83.4927 29.2666 83.8267 29.6299 84.0581 30.1045C84.2896 30.5791 84.4053 31.1445 84.4053 31.8008C84.4053 32.4658 84.2866 33.0386 84.0493 33.519C83.8149 33.9995 83.4707 34.3672 83.0166 34.6221C82.5654 34.874 82.0234 35 81.3906 35H79.501ZM81.3555 34.4375C81.8887 34.4375 82.3369 34.3335 82.7002 34.1255C83.0635 33.9146 83.3359 33.6128 83.5176 33.2202C83.7021 32.8247 83.793 32.3516 83.79 31.8008C83.79 31.2559 83.7007 30.79 83.522 30.4033C83.3462 30.0137 83.084 29.7163 82.7354 29.5112C82.3896 29.3032 81.9648 29.1992 81.4609 29.1992H80.125V34.4375H81.3555ZM85.6357 28.6367H89.3623V29.1992H86.2598V31.5371H89.1689V32.0908H86.2598V34.4375H89.4238V35H85.6357V28.6367ZM94.1436 30.2363C94.123 30.0078 94.0469 29.8086 93.915 29.6387C93.7861 29.4658 93.6118 29.334 93.3921 29.2432C93.1753 29.1494 92.9307 29.1025 92.6582 29.1025C92.3711 29.1025 92.1147 29.1523 91.8892 29.252C91.6665 29.3516 91.4922 29.4907 91.3662 29.6694C91.2432 29.8452 91.1816 30.043 91.1816 30.2627C91.1816 30.5615 91.2988 30.8003 91.5332 30.979C91.7705 31.1577 92.0723 31.2969 92.4385 31.3965L93.0977 31.5811C93.6074 31.7275 94.0249 31.9297 94.3501 32.1875C94.6753 32.4453 94.8379 32.8145 94.8379 33.2949C94.8379 33.6406 94.7485 33.9512 94.5698 34.2266C94.3911 34.499 94.1333 34.7144 93.7964 34.8726C93.4624 35.0278 93.0684 35.1055 92.6143 35.1055C92.1836 35.1055 91.8057 35.0337 91.4805 34.8901C91.1553 34.7466 90.8989 34.5459 90.7114 34.2881C90.5269 34.0303 90.4229 33.7314 90.3994 33.3916H91.041C91.0615 33.6348 91.1421 33.8428 91.2827 34.0156C91.4233 34.1885 91.6094 34.3203 91.8408 34.4111C92.0723 34.499 92.3301 34.543 92.6143 34.543C92.9248 34.543 93.2031 34.4917 93.4492 34.3892C93.6953 34.2837 93.8872 34.1357 94.0249 33.9453C94.1626 33.7549 94.2314 33.5352 94.2314 33.2861C94.2314 32.9902 94.1187 32.7573 93.8931 32.5874C93.6704 32.4146 93.3438 32.2666 92.9131 32.1436L92.1572 31.9238C91.6387 31.7686 91.2432 31.5576 90.9707 31.291C90.7012 31.0244 90.5664 30.6904 90.5664 30.2891C90.5664 29.9492 90.6587 29.6475 90.8433 29.3838C91.0278 29.1201 91.2798 28.915 91.5991 28.7686C91.9214 28.6221 92.2803 28.5488 92.6758 28.5488C93.0684 28.5488 93.4199 28.6221 93.7305 28.7686C94.041 28.9121 94.2856 29.1128 94.4644 29.3706C94.646 29.6255 94.7441 29.9141 94.7588 30.2363H94.1436ZM96.6924 35H96.0684V28.6367H96.6924V35ZM102.59 30.623C102.511 30.3389 102.385 30.0854 102.212 29.8628C102.039 29.6372 101.821 29.46 101.557 29.3311C101.296 29.2021 101.002 29.1377 100.674 29.1377C100.264 29.1377 99.8975 29.2446 99.5752 29.4585C99.2529 29.6724 98.9995 29.9814 98.8149 30.3857C98.6304 30.7871 98.5381 31.2646 98.5381 31.8184C98.5381 32.3691 98.6304 32.8467 98.8149 33.251C98.9995 33.6553 99.2559 33.9644 99.584 34.1782C99.915 34.3921 100.293 34.499 100.718 34.499C101.096 34.499 101.431 34.417 101.724 34.2529C102.017 34.0859 102.247 33.8486 102.414 33.541C102.581 33.2305 102.666 32.8672 102.669 32.4512H100.85V31.8975H103.275V32.4424C103.275 32.9756 103.166 33.4429 102.946 33.8442C102.729 34.2427 102.427 34.5503 102.041 34.7671C101.654 34.981 101.213 35.0879 100.718 35.0879C100.161 35.0879 99.6719 34.9546 99.25 34.688C98.8281 34.4185 98.5015 34.0376 98.27 33.5454C98.0386 33.0503 97.9229 32.4746 97.9229 31.8184C97.9229 31.1621 98.0386 30.5879 98.27 30.0957C98.5044 29.6006 98.8296 29.2197 99.2456 28.9531C99.6616 28.6836 100.138 28.5488 100.674 28.5488C101.122 28.5488 101.528 28.6411 101.891 28.8257C102.254 29.0103 102.552 29.2607 102.783 29.5771C103.018 29.8906 103.17 30.2393 103.24 30.623H102.59ZM109.524 35H108.927L105.227 29.7529H105.174V35H104.55V28.6367H105.156L108.856 33.8926H108.909V28.6367H109.524V35ZM117.593 30.623C117.514 30.3389 117.388 30.0854 117.215 29.8628C117.042 29.6372 116.824 29.46 116.56 29.3311C116.299 29.2021 116.005 29.1377 115.677 29.1377C115.267 29.1377 114.9 29.2446 114.578 29.4585C114.256 29.6724 114.002 29.9814 113.818 30.3857C113.633 30.7871 113.541 31.2646 113.541 31.8184C113.541 32.3691 113.633 32.8467 113.818 33.251C114.002 33.6553 114.259 33.9644 114.587 34.1782C114.918 34.3921 115.296 34.499 115.721 34.499C116.099 34.499 116.434 34.417 116.727 34.2529C117.02 34.0859 117.25 33.8486 117.417 33.541C117.584 33.2305 117.669 32.8672 117.672 32.4512H115.853V31.8975H118.278V32.4424C118.278 32.9756 118.168 33.4429 117.949 33.8442C117.732 34.2427 117.43 34.5503 117.043 34.7671C116.657 34.981 116.216 35.0879 115.721 35.0879C115.164 35.0879 114.675 34.9546 114.253 34.688C113.831 34.4185 113.504 34.0376 113.273 33.5454C113.042 33.0503 112.926 32.4746 112.926 31.8184C112.926 31.1621 113.042 30.5879 113.273 30.0957C113.507 29.6006 113.833 29.2197 114.249 28.9531C114.665 28.6836 115.141 28.5488 115.677 28.5488C116.125 28.5488 116.531 28.6411 116.894 28.8257C117.257 29.0103 117.555 29.2607 117.786 29.5771C118.021 29.8906 118.173 30.2393 118.243 30.623H117.593ZM119.553 28.6367H121.636C122.081 28.6367 122.459 28.7173 122.77 28.8784C123.08 29.0396 123.313 29.2651 123.468 29.5552C123.624 29.8423 123.701 30.1748 123.701 30.5527C123.701 30.9863 123.599 31.3584 123.394 31.6689C123.191 31.9766 122.896 32.1948 122.506 32.3237L123.965 35H123.244L121.864 32.4424C121.771 32.4482 121.697 32.4512 121.645 32.4512H120.177V35H119.553V28.6367ZM121.618 31.8799C122.104 31.8799 122.471 31.7642 122.717 31.5327C122.963 31.2983 123.086 30.9717 123.086 30.5527C123.086 30.1309 122.961 29.7998 122.712 29.5596C122.466 29.3193 122.099 29.1992 121.609 29.1992H120.177V31.8799H121.618ZM130.196 31.8184C130.196 32.4717 130.079 33.0459 129.845 33.541C129.61 34.0361 129.284 34.4185 128.865 34.688C128.446 34.9546 127.97 35.0879 127.437 35.0879C126.9 35.0879 126.423 34.9546 126.004 34.688C125.585 34.4185 125.257 34.0361 125.02 33.541C124.785 33.0459 124.668 32.4717 124.668 31.8184C124.668 31.165 124.785 30.5908 125.02 30.0957C125.257 29.6006 125.585 29.2197 126.004 28.9531C126.423 28.6836 126.9 28.5488 127.437 28.5488C127.97 28.5488 128.446 28.6836 128.865 28.9531C129.284 29.2197 129.61 29.6006 129.845 30.0957C130.079 30.5908 130.196 31.165 130.196 31.8184ZM129.59 31.8184C129.59 31.2646 129.496 30.7871 129.309 30.3857C129.124 29.9814 128.869 29.6724 128.544 29.4585C128.219 29.2446 127.85 29.1377 127.437 29.1377C127.023 29.1377 126.654 29.2446 126.329 29.4585C126.004 29.6724 125.748 29.9814 125.56 30.3857C125.375 30.79 125.283 31.2676 125.283 31.8184C125.283 32.3691 125.375 32.8467 125.56 33.251C125.745 33.6553 126 33.9644 126.325 34.1782C126.65 34.3921 127.021 34.499 127.437 34.499C127.85 34.499 128.219 34.3921 128.544 34.1782C128.869 33.9644 129.124 33.6553 129.309 33.251C129.496 32.8467 129.59 32.3691 129.59 31.8184ZM136.287 28.6367V32.8467C136.287 33.2773 136.185 33.6641 135.979 34.0068C135.777 34.3496 135.492 34.6191 135.123 34.8154C134.753 35.0088 134.333 35.1055 133.861 35.1055C133.387 35.1055 132.965 35.0088 132.596 34.8154C132.229 34.6191 131.944 34.3496 131.739 34.0068C131.537 33.6641 131.436 33.2773 131.436 32.8467V28.6367H132.06V32.8027C132.06 33.1338 132.134 33.4297 132.284 33.6904C132.433 33.9512 132.644 34.1562 132.917 34.3057C133.189 34.4521 133.504 34.5254 133.861 34.5254C134.219 34.5254 134.534 34.4521 134.806 34.3057C135.079 34.1562 135.29 33.9512 135.439 33.6904C135.588 33.4268 135.663 33.1309 135.663 32.8027V28.6367H136.287ZM137.799 28.6367H139.882C140.327 28.6367 140.704 28.7217 141.011 28.8916C141.322 29.0615 141.555 29.2959 141.71 29.5947C141.868 29.8936 141.947 30.2334 141.947 30.6143C141.947 30.9922 141.868 31.3306 141.71 31.6294C141.555 31.9282 141.323 32.1641 141.016 32.3369C140.708 32.5068 140.333 32.5918 139.891 32.5918H138.423V35H137.799V28.6367ZM139.864 32.0293C140.187 32.0293 140.458 31.9692 140.677 31.8491C140.897 31.729 141.061 31.5635 141.169 31.3525C141.278 31.1387 141.332 30.8926 141.332 30.6143C141.332 30.333 141.278 30.0869 141.169 29.876C141.061 29.6621 140.896 29.4966 140.673 29.3794C140.453 29.2593 140.181 29.1992 139.855 29.1992H138.423V32.0293H139.864ZM145.313 35V28.6367H147.309C147.915 28.6367 148.435 28.7627 148.869 29.0146C149.305 29.2666 149.639 29.6299 149.871 30.1045C150.102 30.5791 150.218 31.1445 150.218 31.8008C150.218 32.4658 150.099 33.0386 149.862 33.519C149.627 33.9995 149.283 34.3672 148.829 34.6221C148.378 34.874 147.836 35 147.203 35H145.313ZM147.168 34.4375C147.701 34.4375 148.149 34.3335 148.513 34.1255C148.876 33.9146 149.148 33.6128 149.33 33.2202C149.515 32.8247 149.605 32.3516 149.603 31.8008C149.603 31.2559 149.513 30.79 149.334 30.4033C149.159 30.0137 148.896 29.7163 148.548 29.5112C148.202 29.3032 147.777 29.1992 147.273 29.1992H145.938V34.4375H147.168ZM150.552 35L152.863 28.6367H153.54L155.852 35H155.192L154.524 33.1104H151.879L151.211 35H150.552ZM154.327 32.5566L153.224 29.4453H153.18L152.077 32.5566H154.327ZM156.774 28.6367H158.857C159.303 28.6367 159.681 28.7173 159.991 28.8784C160.302 29.0396 160.535 29.2651 160.69 29.5552C160.845 29.8423 160.923 30.1748 160.923 30.5527C160.923 30.9863 160.82 31.3584 160.615 31.6689C160.413 31.9766 160.117 32.1948 159.728 32.3237L161.187 35H160.466L159.086 32.4424C158.992 32.4482 158.919 32.4512 158.866 32.4512H157.398V35H156.774V28.6367ZM158.84 31.8799C159.326 31.8799 159.692 31.7642 159.938 31.5327C160.185 31.2983 160.308 30.9717 160.308 30.5527C160.308 30.1309 160.183 29.7998 159.934 29.5596C159.688 29.3193 159.32 29.1992 158.831 29.1992H157.398V31.8799H158.84ZM162.9 28.6367L165.177 34.1035H165.238L167.506 28.6367H168.244V35H167.646V29.9287H167.594L165.484 35H164.922L162.812 29.9287H162.76V35H162.171V28.6367H162.9Z" fill="white"/>
</g>
<defs>
<clipPath id="clip0_5_50">
<rect width="171" height="40" fill="white"/>
</clipPath>
</defs>
</svg>
